HIERARCHY
ROOT root
{
	OFFSET 0.000000 0.000000 0.000000
	CHANNELS 6 Xposition Yposition Zposition Zrotation Yrotation Xrotation
	JOINT lhip
	{
		OFFSET 0.058581 -0.082280 -0.017664
		CHANNELS 3 Zrotation Yrotation Xrotation
		JOINT lknee
		{
			OFFSET 0.043451 -0.386469 0.008037
			CHANNELS 3 Zrotation Yrotation Xrotation
			JOINT lankle
			{
				OFFSET -0.014790 -0.426874 -0.037428
				CHANNELS 3 Zrotation Yrotation Xrotation
				JOINT ltoe
				{
					OFFSET 0.041054 -0.060286 0.122042
					CHANNELS 3 Zrotation Yrotation Xrotation
					End Site
					{
						OFFSET 0.000000 0.000000 0.000000
					}
				}
			}
		}
	}
	JOINT rhip
	{
		OFFSET -0.060310 -0.090513 -0.013543
		CHANNELS 3 Zrotation Yrotation Xrotation
		JOINT rknee
		{
			OFFSET -0.043257 -0.383688 -0.004843
			CHANNELS 3 Zrotation Yrotation Xrotation
			JOINT rankle
			{
				OFFSET 0.019056 -0.420046 -0.034562
				CHANNELS 3 Zrotation Yrotation Xrotation
				JOINT rtoe
				{
					OFFSET -0.034840 -0.062106 0.130323
					CHANNELS 3 Zrotation Yrotation Xrotation
					End Site
					{
						OFFSET 0.000000 0.000000 0.000000
					}
				}
			}
		}
	}
	JOINT lowerback
	{
		OFFSET 0.004439 0.124404 -0.038385
		CHANNELS 3 Zrotation Yrotation Xrotation
		JOINT upperback
		{
			OFFSET 0.004488 0.137956 0.026820
			CHANNELS 3 Zrotation Yrotation Xrotation
			JOINT chest
			{
				OFFSET -0.002265 0.056032 0.002855
				CHANNELS 3 Zrotation Yrotation Xrotation
				JOINT lowerneck
				{
					OFFSET -0.013390 0.211636 -0.033468
					CHANNELS 3 Zrotation Yrotation Xrotation
					JOINT upperneck
					{
						OFFSET 0.010113 0.088937 0.050410
						CHANNELS 3 Zrotation Yrotation Xrotation
						End Site
						{
							OFFSET 0.000000 0.000000 0.000000
						}
					}
				}
				JOINT lclavicle
				{
					OFFSET 0.071702 0.114000 -0.018898
					CHANNELS 3 Zrotation Yrotation Xrotation
					JOINT lshoulder
					{
						OFFSET 0.122921 0.045205 -0.019046
						CHANNELS 3 Zrotation Yrotation Xrotation
						JOINT lelbow
						{
							OFFSET 0.255332 -0.015649 -0.022946
							CHANNELS 3 Zrotation Yrotation Xrotation
							JOINT lwrist
							{
								OFFSET 0.265709 0.012698 -0.007375
								CHANNELS 3 Zrotation Yrotation Xrotation
								End Site
								{
									OFFSET 0.000000 0.000000 0.000000
								}
							}
						}
					}
				}
				JOINT rclavicle
				{
					OFFSET -0.082954 0.112472 -0.023707
					CHANNELS 3 Zrotation Yrotation Xrotation
					JOINT rshoulder
					{
						OFFSET -0.113228 0.046853 -0.008472
						CHANNELS 3 Zrotation Yrotation Xrotation
						JOINT relbow
						{
							OFFSET -0.260127 -0.014369 -0.031269
							CHANNELS 3 Zrotation Yrotation Xrotation
							JOINT rwrist
							{
								OFFSET -0.269108 0.006794 -0.006027
								CHANNELS 3 Zrotation Yrotation Xrotation
								End Site
								{
									OFFSET 0.000000 0.000000 0.000000
								}
							}
						}
					}
				}
			}
		}
	}
}
MOTION
Frames: 10
Frame Time: 0.033333
0.135160 -1.598444 0.973888 -89.888691 1.926359 89.616585 14.580715 9.423563 -29.077441 -2.874808 3.172823 29.820449 2.500800 4.890555 -1.737070 0.000000 -0.000000 0.000000 0.813058 -30.957060 -6.669120 12.804353 -2.966231 15.156538 -1.093209 12.368943 -14.814967 0.000000 -0.000000 0.000000 -2.046427 10.780270 7.045833 2.781992 -3.316035 1.033262 3.521746 -0.946570 -6.470303 1.641415 7.073756 -5.900068 3.221645 5.671079 18.131669 -27.368909 0.249650 -1.038077 -57.816123 -8.062762 -0.116830 13.926172 -16.912837 3.828802 -10.573779 1.681547 -16.993427 25.531547 6.168711 6.715939 47.752975 11.845236 -3.073065 -5.159263 10.525164 -3.127459 11.239790 2.344281 -19.718564 
0.134695 -1.598189 0.975023 -90.082005 1.928379 89.830037 14.392258 9.293826 -28.832343 -2.293808 3.123742 29.166537 4.218407 5.007093 -1.437714 0.000000 -0.000000 0.000000 0.929481 -30.729565 -6.443358 13.065631 -2.444088 14.304177 -0.723064 12.005049 -14.092116 0.000000 -0.000000 0.000000 -2.497917 10.805705 6.713645 3.003523 -3.303798 1.246774 3.457561 -1.016566 -6.617278 3.367886 7.550222 -5.884300 4.203824 5.549881 18.898255 -26.935094 -0.026483 -0.573325 -56.966943 -6.768938 2.150697 8.806136 -22.329422 17.652307 -15.818693 -1.331206 -8.268979 25.242364 6.130476 7.323368 49.914318 11.026161 -0.781051 -3.964141 14.855436 6.231031 16.070716 4.590161 -13.491214 
0.134297 -1.598666 0.975554 -90.457863 1.911669 89.977805 14.469075 8.863767 -28.669609 -2.332927 3.139364 28.945756 4.695109 5.751907 -1.261193 0.000000 -0.000000 0.000000 0.918052 -30.566708 -6.643732 13.332016 -1.913175 14.385834 -0.353542 11.780769 -13.762218 0.000000 -0.000000 0.000000 -2.671865 11.083231 6.309471 3.177918 -3.522236 1.595039 3.292154 -0.996790 -6.499601 4.438859 7.680256 -6.360605 5.314141 4.906697 19.641294 -25.996629 -0.706891 -0.596291 -55.987107 -6.008665 4.483738 3.405358 -26.641221 24.942455 -14.070751 -1.761741 -4.721108 24.732716 6.238454 7.406312 50.858887 10.200061 2.044851 -1.370539 19.209628 14.590702 19.285821 3.764231 -6.859655 
0.133930 -1.599005 0.975434 -90.919332 1.978418 89.983906 15.106524 8.043128 -28.531895 -2.812276 3.574080 29.161784 4.809630 6.768743 -1.256457 0.000000 -0.000000 0.000000 1.242390 -30.004431 -6.696842 13.155009 -1.489357 14.141561 -0.418138 11.024011 -13.720371 0.000000 -0.000000 0.000000 -2.939226 11.308533 6.086700 3.526669 -3.846817 1.786619 3.525343 -0.859856 -6.335805 4.828863 7.429072 -6.654826 6.253744 4.560650 20.161766 -25.293121 -1.659523 -0.754494 -55.180343 -5.315582 6.129152 -0.870112 -30.120163 28.176331 -11.128408 -1.804822 -3.931308 24.138636 7.052445 7.308368 50.423971 9.251676 4.623802 1.903288 23.329859 21.875548 22.641759 2.158374 -4.591804 
0.133650 -1.598679 0.974483 -91.257538 1.983666 89.968686 15.844754 7.839824 -28.523621 -3.506973 4.275733 29.591636 4.648145 7.032345 -1.483436 0.000000 -0.000000 0.000000 0.778020 -30.445125 -6.399430 13.935464 -1.355297 14.184915 -0.020365 11.563816 -13.529772 0.000000 -0.000000 0.000000 -3.358503 11.523767 5.923025 3.839391 -4.158455 1.827671 3.823457 -0.791329 -6.126254 5.382783 7.325652 -6.859314 6.948348 4.593329 21.012128 -24.770680 -2.463891 -1.039445 -54.688202 -4.915882 7.391764 -3.123322 -32.416476 29.507539 -6.086980 -3.523781 -2.763075 23.684808 8.143307 6.931237 49.739945 8.957507 6.232330 4.914048 25.023542 26.775429 22.690433 1.748806 -2.821855 
0.132934 -1.599139 0.973954 -91.201463 1.946201 89.824562 16.200897 7.392185 -28.334510 -3.997654 4.663964 29.704577 3.329250 7.039482 -1.896167 0.000000 -0.000000 0.000000 0.621136 -29.954287 -5.845848 13.849343 -1.663108 13.503246 -0.018889 11.411128 -13.701308 0.000000 -0.000000 0.000000 -3.526114 11.424687 5.706233 4.025025 -4.426787 2.362619 3.970936 -0.864110 -6.212713 6.038149 7.315856 -6.793920 7.102059 4.200195 21.272428 -24.646104 -3.004138 -1.218733 -54.182169 -5.164740 8.468327 -3.542456 -33.239721 28.307392 -2.925012 -5.206022 -2.867382 23.691915 8.865362 6.608475 48.591932 9.552052 7.844145 6.971174 25.049393 29.671531 20.701100 1.888735 -1.437048 
0.134530 -1.600197 0.972306 -91.659702 1.610651 90.305633 16.056381 7.504029 -28.887326 -4.210526 5.219549 29.821273 2.676370 7.019650 -1.785912 0.000000 -0.000000 0.000000 0.041691 -29.528207 -7.084686 14.276955 -2.614304 14.694387 0.081860 12.319975 -13.831766 0.000000 -0.000000 0.000000 -3.567744 11.582042 5.614863 3.910328 -4.317025 1.850062 3.882822 -0.999473 -6.084199 6.630328 7.617667 -6.798303 6.990909 3.018683 21.710986 -24.368033 -3.372257 -1.293462 -54.117718 -6.129991 9.074196 -2.995408 -32.481665 26.375374 -0.847985 -6.416314 -4.016620 23.720709 8.984132 6.592938 47.698012 10.878914 8.546592 7.913141 24.124236 31.573316 16.867688 2.547276 -0.274376 
0.139387 -1.602128 0.968948 -92.554193 0.854217 91.382676 15.072808 7.391108 -30.085887 -3.866761 5.812838 29.377676 2.769888 7.811885 -1.042873 0.000000 -0.000000 0.000000 -0.023728 -27.718542 -10.185539 13.661902 -4.309719 16.451490 0.092085 12.621371 -13.980575 0.000000 -0.000000 0.000000 -3.613124 10.781314 6.960870 3.315234 -3.077967 -1.260846 3.753093 -0.858648 -5.379566 6.949573 7.953735 -6.248125 6.993733 1.579092 21.598456 -24.287189 -3.294763 -1.460117 -54.590637 -7.497583 8.916183 -1.668840 -30.535834 25.210998 -0.465512 -6.334371 -4.477893 22.788012 8.439928 6.103282 48.426525 12.061434 10.082910 7.354292 23.349472 32.812977 11.631982 2.883433 -2.030440 
0.140343 -1.601915 0.968194 -92.559321 0.971264 91.497021 15.013644 7.707803 -30.322188 -3.550896 5.875568 29.381778 3.378581 7.584850 -1.024578 0.000000 -0.000000 0.000000 0.713776 -27.657936 -10.428219 13.145230 -3.905336 16.000456 -0.013910 12.006549 -13.819558 0.000000 -0.000000 0.000000 -3.712638 10.616273 7.149751 3.572762 -3.083844 -1.921380 3.740019 -0.835872 -5.108983 7.130330 6.695438 -5.883139 7.077541 1.834887 21.434246 -24.263287 -3.167438 -1.162548 -55.075671 -9.090349 9.067038 1.130788 -29.013759 22.963876 -0.711387 -5.179432 -4.617414 22.910731 8.388056 6.225634 48.601547 12.712652 9.586826 5.139411 23.271581 30.144137 10.465240 2.299058 -1.511281 
0.140398 -1.602079 0.968301 -92.695752 0.962940 91.456091 14.915509 7.926713 -30.216801 -3.429367 5.921956 29.335111 3.414810 7.438453 -1.073716 0.000000 -0.000000 0.000000 0.935235 -27.525483 -10.450523 12.868647 -3.779010 15.881114 -0.160850 11.716495 -13.888319 0.000000 -0.000000 0.000000 -3.789347 10.519942 7.026345 3.632977 -3.076767 -1.840920 3.814023 -0.799796 -5.053908 7.110571 6.382396 -5.648266 7.115300 1.862886 21.360528 -24.343306 -3.179934 -1.233635 -55.229745 -9.438765 8.654240 2.139551 -28.286580 22.036337 -0.623666 -4.498542 -4.436659 22.918045 8.392825 6.187774 48.612921 12.852851 9.082235 4.242952 23.222257 28.764340 9.845732 2.067502 -1.939522 
